<svg xmlns="http://www.w3.org/2000/svg" xmlns:xlink="http://www.w3.org/1999/xlink" width="900" height="325.65"><rect width="900" height="325.65" rx="0" ry="0" class="a"/><svg height="325.65" viewBox="0 0 90 32.565" width="900" xmlns="http://www.w3.org/2000/svg" xmlns:xlink="http://www.w3.org/1999/xlink"><style>@keyframes l{0%{transform:translateX(0)}2.3%{transform:translateX(-90px)}9.2%{transform:translateX(-180px)}10%{transform:translateX(-270px)}11%{transform:translateX(-360px)}11.7%{transform:translateX(-450px)}12.7%{transform:translateX(-540px)}13.4%{transform:translateX(-630px)}14.2%{transform:translateX(-720px)}15.7%{transform:translateX(-810px)}16.6%{transform:translateX(-900px)}17%{transform:translateX(-990px)}17.8%{transform:translateX(-1080px)}18.6%{transform:translateX(-1170px)}19.2%{transform:translateX(-1260px)}20.1%{transform:translateX(-1350px)}20.9%{transform:translateX(-1440px)}21.6%{transform:translateX(-1530px)}22.6%{transform:translateX(-1620px)}23.7%{transform:translateX(-1710px)}24.6%{transform:translateX(-1800px)}25.3%{transform:translateX(-1890px)}26.4%{transform:translateX(-1980px)}27.4%{transform:translateX(-2070px)}28.4%{transform:translateX(-2160px)}29.3%{transform:translateX(-2250px)}31.4%{transform:translateX(-2340px)}34.4%{transform:translateX(-2610px)}34.9%{transform:translateX(-2790px)}35.2%{transform:translateX(-3060px)}35.3%{transform:translateX(-3330px)}35.7%{transform:translateX(-3510px)}36.7%{transform:translateX(-3870px)}36.8%{transform:translateX(-4950px)}36.9%{transform:translateX(-5220px)}37.2%{transform:translateX(-5310px)}43.5%{transform:translateX(-5400px)}44.7%{transform:translateX(-5490px)}45.7%{transform:translateX(-5580px)}46.6%{transform:translateX(-5670px)}48.6%{transform:translateX(-5760px)}49.2%{transform:translateX(-5850px)}49.9%{transform:translateX(-5940px)}50.6%{transform:translateX(-6030px)}51.3%{transform:translateX(-6120px)}52.1%{transform:translateX(-6210px)}53.2%{transform:translateX(-6300px)}54%{transform:translateX(-6390px)}55.3%{transform:translateX(-6480px)}56.2%{transform:translateX(-6570px)}57%{transform:translateX(-6660px)}57.6%{transform:translateX(-6750px)}58.3%{transform:translateX(-6840px)}59.8%{transform:translateX(-6930px)}62.3%{transform:translateX(-7200px)}62.8%{transform:translateX(-7380px)}65.8%{transform:translateX(-7560px)}65.9%{transform:translateX(-7740px)}66.2%{transform:translateX(-7830px)}to{transform:translateX(-7920px)}}.a{fill:#282d35}.c,.d{fill:#b9c0cb}.d{font-weight:700}.e{fill:#e88388}.f{fill:#dbab79}.g{fill:#a8cc8c}.h{fill:#71bef2}.i{fill:#d290e4}</style><g font-size="1.67" font-family="Monaco,Consolas,Menlo,'Bitstream Vera Sans Mono','Powerline Symbols',monospace"><defs><symbol id="1"><text y="1.67" class="c">bash-3.2$</text></symbol><symbol id="2"><text y="1.67" class="c">bash-3.2$</text><text x="11.022" y="1.67" class="c">y</text></symbol><symbol id="3"><text y="1.67" class="c">bash-3.2$</text><text x="11.022" y="1.67" class="c">ya</text></symbol><symbol id="4"><text y="1.67" class="c">bash-3.2$</text><text x="11.022" y="1.67" class="c">yar</text></symbol><symbol id="5"><text y="1.67" class="c">bash-3.2$</text><text x="11.022" y="1.67" class="c">yarn</text></symbol><symbol id="6"><text y="1.67" class="c">bash-3.2$</text><text x="11.022" y="1.67" class="c">yarn</text><text x="16.032" y="1.67" class="c">add</text></symbol><symbol id="7"><text y="1.67" class="c">bash-3.2$</text><text x="11.022" y="1.67" class="c">yarn</text><text x="16.032" y="1.67" class="c">add</text><text x="20.04" y="1.67" class="c">package-eli5</text></symbol><symbol id="8"><text y="1.67" class="c">bash-3.2$</text><text x="11.022" y="1.67" class="c">yarn</text><text x="16.032" y="1.67" class="c">add</text><text x="20.04" y="1.67" class="c">package-eli5</text><text x="33.066" y="1.67" class="c">-s</text></symbol><symbol id="9"><text y="1.67" class="c">⠁</text></symbol><symbol id="10"><text y="1.67" class="c">⠂</text><text x="2.004" y="1.67" class="c">package-eli5</text></symbol><symbol id="11"><text y="1.67" class="c">[---------------------------------------------------------]</text><text x="60.12" y="1.67" class="c">0/57</text></symbol><symbol id="12"><text y="1.67" class="c">[-----------------------------------------------------------------------------------------</text></symbol><symbol id="13"><text y="1.67" class="c">└─</text><text x="3.006" y="1.67" class="c">package-eli5@1.0.1</text></symbol><symbol id="14"><text y="1.67" class="c">bash-3.2$</text><text x="11.022" y="1.67" class="c">yarn</text><text x="16.032" y="1.67" class="c">package-eli5</text></symbol><symbol id="15"><text y="1.67" class="d">yarn</text><text x="5.01" y="1.67" class="d">run</text><text x="9.018" y="1.67" class="d">v1.6.0</text></symbol><symbol id="16"><text y="1.67" class="c">$</text><text x="2.004" y="1.67" class="c">/Users/billreed/tmp/package-eli5-test/node_modules/.bin/package-eli5</text></symbol><symbol id="17"><text y="1.67" class="e">P</text><text x="1.002" y="1.67" class="f">a</text><text x="2.004" y="1.67" class="g">c</text><text x="3.006" y="1.67" class="h">k</text><text x="4.008" y="1.67" class="i">a</text><text x="5.01" y="1.67" class="e">g</text><text x="6.012" y="1.67" class="f">e</text><text x="8.016" y="1.67" class="h">E</text><text x="9.018" y="1.67" class="i">L</text><text x="10.02" y="1.67" class="e">I</text><text x="11.022" y="1.67" class="f">5</text></symbol><symbol id="18"><text y="1.67" class="g">package-eli5</text><text x="12.024" y="1.67" class="c">:</text><text x="14.028" y="1.67" class="c">Show</text><text x="19.038" y="1.67" class="c">the</text><text x="23.046" y="1.67" class="c">description</text><text x="35.07" y="1.67" class="c">for</text><text x="39.078" y="1.67" class="c">each</text><text x="44.088" y="1.67" class="c">dependency</text><text x="55.11" y="1.67" class="c">in</text><text x="58.116" y="1.67" class="c">package.json</text></symbol><symbol id="19"><text y="1.67" class="c">✨</text><text x="3.006" y="1.67" class="c">Done</text><text x="8.016" y="1.67" class="c">in</text><text x="11.022" y="1.67" class="c">0.46s.</text></symbol><symbol id="a"><path fill="transparent" d="M0 0h90v16H0z"/></symbol><symbol id="b"><path fill="#6f7683" d="M0 0h1.102v2.171H0z"/></symbol></defs><path class="a" d="M0 0h90v32.565H0z"/><g style="animation-duration:12.804007s;animation-iteration-count:infinite;animation-name:l;animation-timing-function:steps(1,end)"><svg width="8010"><svg><use xlink:href="#a"/><use xlink:href="#b" x="-.004"/></svg><svg x="90"><use xlink:href="#a"/><use xlink:href="#b" x="10.996"/><use xlink:href="#1"/></svg><svg x="180"><use xlink:href="#a"/><use xlink:href="#b" x="11.996"/><use xlink:href="#2"/></svg><svg x="270"><use xlink:href="#a"/><use xlink:href="#b" x="12.996"/><use xlink:href="#3"/></svg><svg x="360"><use xlink:href="#a"/><use xlink:href="#b" x="13.996"/><use xlink:href="#4"/></svg><svg x="450"><use xlink:href="#a"/><use xlink:href="#b" x="14.996"/><use xlink:href="#5"/></svg><svg x="540"><use xlink:href="#a"/><use xlink:href="#b" x="15.996"/><use xlink:href="#5"/></svg><svg x="630"><use xlink:href="#a"/><use xlink:href="#b" x="16.996"/><text y="1.67" class="c">bash-3.2$</text><text x="11.022" y="1.67" class="c">yarn</text><text x="16.032" y="1.67" class="c">a</text></svg><svg x="720"><use xlink:href="#a"/><use xlink:href="#b" x="17.996"/><text y="1.67" class="c">bash-3.2$</text><text x="11.022" y="1.67" class="c">yarn</text><text x="16.032" y="1.67" class="c">ad</text></svg><svg x="810"><use xlink:href="#a"/><use xlink:href="#b" x="18.996"/><use xlink:href="#6"/></svg><svg x="900"><use xlink:href="#a"/><use xlink:href="#b" x="19.996"/><use xlink:href="#6"/></svg><svg x="990"><use xlink:href="#a"/><use xlink:href="#b" x="20.996"/><text y="1.67" class="c">bash-3.2$</text><text x="11.022" y="1.67" class="c">yarn</text><text x="16.032" y="1.67" class="c">add</text><text x="20.04" y="1.67" class="c">p</text></svg><svg x="1080"><use xlink:href="#a"/><use xlink:href="#b" x="21.996"/><text y="1.67" class="c">bash-3.2$</text><text x="11.022" y="1.67" class="c">yarn</text><text x="16.032" y="1.67" class="c">add</text><text x="20.04" y="1.67" class="c">pa</text></svg><svg x="1170"><use xlink:href="#a"/><use xlink:href="#b" x="22.996"/><text y="1.67" class="c">bash-3.2$</text><text x="11.022" y="1.67" class="c">yarn</text><text x="16.032" y="1.67" class="c">add</text><text x="20.04" y="1.67" class="c">pac</text></svg><svg x="1260"><use xlink:href="#a"/><use xlink:href="#b" x="23.996"/><text y="1.67" class="c">bash-3.2$</text><text x="11.022" y="1.67" class="c">yarn</text><text x="16.032" y="1.67" class="c">add</text><text x="20.04" y="1.67" class="c">pack</text></svg><svg x="1350"><use xlink:href="#a"/><use xlink:href="#b" x="24.996"/><text y="1.67" class="c">bash-3.2$</text><text x="11.022" y="1.67" class="c">yarn</text><text x="16.032" y="1.67" class="c">add</text><text x="20.04" y="1.67" class="c">packa</text></svg><svg x="1440"><use xlink:href="#a"/><use xlink:href="#b" x="25.996"/><text y="1.67" class="c">bash-3.2$</text><text x="11.022" y="1.67" class="c">yarn</text><text x="16.032" y="1.67" class="c">add</text><text x="20.04" y="1.67" class="c">packag</text></svg><svg x="1530"><use xlink:href="#a"/><use xlink:href="#b" x="26.996"/><text y="1.67" class="c">bash-3.2$</text><text x="11.022" y="1.67" class="c">yarn</text><text x="16.032" y="1.67" class="c">add</text><text x="20.04" y="1.67" class="c">package</text></svg><svg x="1620"><use xlink:href="#a"/><use xlink:href="#b" x="27.996"/><text y="1.67" class="c">bash-3.2$</text><text x="11.022" y="1.67" class="c">yarn</text><text x="16.032" y="1.67" class="c">add</text><text x="20.04" y="1.67" class="c">package-</text></svg><svg x="1710"><use xlink:href="#a"/><use xlink:href="#b" x="28.996"/><text y="1.67" class="c">bash-3.2$</text><text x="11.022" y="1.67" class="c">yarn</text><text x="16.032" y="1.67" class="c">add</text><text x="20.04" y="1.67" class="c">package-e</text></svg><svg x="1800"><use xlink:href="#a"/><use xlink:href="#b" x="29.996"/><text y="1.67" class="c">bash-3.2$</text><text x="11.022" y="1.67" class="c">yarn</text><text x="16.032" y="1.67" class="c">add</text><text x="20.04" y="1.67" class="c">package-el</text></svg><svg x="1890"><use xlink:href="#a"/><use xlink:href="#b" x="30.996"/><text y="1.67" class="c">bash-3.2$</text><text x="11.022" y="1.67" class="c">yarn</text><text x="16.032" y="1.67" class="c">add</text><text x="20.04" y="1.67" class="c">package-eli</text></svg><svg x="1980"><use xlink:href="#a"/><use xlink:href="#b" x="31.996"/><use xlink:href="#7"/></svg><svg x="2070"><use xlink:href="#a"/><use xlink:href="#b" x="32.996"/><use xlink:href="#7"/></svg><svg x="2160"><use xlink:href="#a"/><use xlink:href="#b" x="33.996"/><text y="1.67" class="c">bash-3.2$</text><text x="11.022" y="1.67" class="c">yarn</text><text x="16.032" y="1.67" class="c">add</text><text x="20.04" y="1.67" class="c">package-eli5</text><text x="33.066" y="1.67" class="c">-</text></svg><svg x="2250"><use xlink:href="#a"/><use xlink:href="#b" x="34.996"/><use xlink:href="#8"/></svg><svg x="2340"><use xlink:href="#a"/><use xlink:href="#b" x="-.004" y="2.146"/><use xlink:href="#8"/></svg><svg x="2430"><use xlink:href="#a"/><use xlink:href="#b" x="-.004" y="2.146"/><use xlink:href="#8"/></svg><svg x="2520"><use xlink:href="#a"/><use xlink:href="#b" x="1.996" y="2.146"/><use xlink:href="#8"/><use xlink:href="#9" y="2.171"/></svg><svg x="2610"><use xlink:href="#a"/><use xlink:href="#b" x="1.996" y="2.146"/><use xlink:href="#8"/><use xlink:href="#9" y="2.171"/></svg><svg x="2700"><use xlink:href="#a"/><use xlink:href="#b" x="13.996" y="2.146"/><use xlink:href="#8"/><use xlink:href="#10" y="2.171"/></svg><svg x="2790"><use xlink:href="#a"/><use xlink:href="#b" x="13.996" y="2.146"/><use xlink:href="#8"/><use xlink:href="#10" y="2.171"/></svg><svg x="2880"><use xlink:href="#a"/><use xlink:href="#b" x="13.996" y="2.146"/><use xlink:href="#8"/></svg><svg x="2970"><use xlink:href="#a"/><use xlink:href="#b" x="-.004" y="2.146"/><use xlink:href="#8"/></svg><svg x="3060"><use xlink:href="#a"/><use xlink:href="#b" x="-.004" y="2.146"/><use xlink:href="#8"/></svg><svg x="3150"><use xlink:href="#a"/><use xlink:href="#b" x="-.004" y="2.146"/><use xlink:href="#8"/></svg><svg x="3240"><use xlink:href="#a"/><use xlink:href="#b" x="-.004" y="2.146"/><use xlink:href="#8"/></svg><svg x="3330"><use xlink:href="#a"/><use xlink:href="#b" x="63.996" y="2.146"/><use xlink:href="#8"/><use xlink:href="#11" y="2.171"/></svg><svg x="3420"><use xlink:href="#a"/><use xlink:href="#b" x="-.004" y="2.146"/><use xlink:href="#8"/></svg><svg x="3510"><use xlink:href="#a"/><use xlink:href="#b" x="63.996" y="2.146"/><use xlink:href="#8"/><use xlink:href="#11" y="2.171"/></svg><svg x="3600"><use xlink:href="#a"/><use xlink:href="#b" x="63.996" y="2.146"/><use xlink:href="#8"/></svg><svg x="3690"><use xlink:href="#a"/><use xlink:href="#b" x="9.996" y="2.146"/><use xlink:href="#8"/><text y="3.841" class="c">[----]</text><text x="7.014" y="3.841" class="c">0/4</text></svg><svg x="3780"><use xlink:href="#a"/><use xlink:href="#b" x="-.004" y="2.146"/><use xlink:href="#8"/></svg><svg x="3870"><use xlink:href="#a"/><use xlink:href="#b" x="29.996" y="4.317"/><use xlink:href="#8"/><use xlink:href="#12" y="2.171"/><text y="6.012" class="c">-----------------------]</text><text x="25.05" y="6.012" class="c">0/112</text></svg><svg x="3960"><use xlink:href="#a"/><use xlink:href="#b" x="1.996" y="4.317"/><use xlink:href="#8"/><use xlink:href="#12" y="2.171"/><use xlink:href="#9" y="4.342"/></svg><svg x="4050"><use xlink:href="#a"/><use xlink:href="#b" x="-.004" y="4.317"/><use xlink:href="#8"/><use xlink:href="#12" y="2.171"/><use xlink:href="#9" y="4.342"/></svg><svg x="4140"><use xlink:href="#a"/><use xlink:href="#b" x="1.996" y="2.146"/><use xlink:href="#8"/><text y="3.841" class="c">⠁</text><text x="2.004" y="3.841" class="c">----------------------------------------------------------------------------------------</text><use xlink:href="#9" y="4.342"/></svg><svg x="4230"><use xlink:href="#a"/><use xlink:href="#b" x="-.004" y="4.317"/><use xlink:href="#8"/><use xlink:href="#9" y="2.171"/><use xlink:href="#9" y="4.342"/></svg><svg x="4320"><use xlink:href="#a"/><use xlink:href="#b" x="-.004" y="4.317"/><use xlink:href="#9"/><use xlink:href="#9" y="2.171"/><use xlink:href="#9" y="4.342"/></svg><svg x="4410"><use xlink:href="#a"/><use xlink:href="#b" x="-.004" y="6.488"/><use xlink:href="#9"/><use xlink:href="#9" y="2.171"/><use xlink:href="#9" y="4.342"/></svg><svg x="4500"><use xlink:href="#a"/><use xlink:href="#b" x="1.996"/><use xlink:href="#9"/><use xlink:href="#9" y="2.171"/><use xlink:href="#9" y="4.342"/></svg><svg x="4590"><use xlink:href="#a"/><use xlink:href="#b" x="-.004" y="8.659"/><use xlink:href="#9"/><use xlink:href="#9" y="2.171"/><use xlink:href="#9" y="4.342"/></svg><svg x="4680"><use xlink:href="#a"/><use xlink:href="#b" x="-.004"/><use xlink:href="#9"/><use xlink:href="#9" y="2.171"/><use xlink:href="#9" y="4.342"/></svg><svg x="4770"><use xlink:href="#a"/><use xlink:href="#b" x="-.004" y="4.317"/></svg><svg x="4860"><use xlink:href="#a"/><use xlink:href="#b" x="-.004" y="8.659"/></svg><svg x="4950"><use xlink:href="#a"/><use xlink:href="#b" x="-.004"/></svg><svg x="5040"><use xlink:href="#a"/><use xlink:href="#b" x="-.004"/></svg><svg x="5130"><use xlink:href="#a"/><use xlink:href="#b" x="-.004" y="2.146"/><use xlink:href="#13"/></svg><svg x="5220"><use xlink:href="#a"/><use xlink:href="#b" x="-.004" y="4.317"/><use xlink:href="#13"/><use xlink:href="#13" y="2.171"/></svg><svg x="5310"><use xlink:href="#a"/><use xlink:href="#b" x="10.996" y="4.317"/><use xlink:href="#13"/><use xlink:href="#13" y="2.171"/><use xlink:href="#1" y="4.342"/></svg><svg x="5400"><use xlink:href="#a"/><use xlink:href="#b" x="11.996" y="4.317"/><use xlink:href="#13"/><use xlink:href="#13" y="2.171"/><use xlink:href="#2" y="4.342"/></svg><svg x="5490"><use xlink:href="#a"/><use xlink:href="#b" x="12.996" y="4.317"/><use xlink:href="#13"/><use xlink:href="#13" y="2.171"/><use xlink:href="#3" y="4.342"/></svg><svg x="5580"><use xlink:href="#a"/><use xlink:href="#b" x="13.996" y="4.317"/><use xlink:href="#13"/><use xlink:href="#13" y="2.171"/><use xlink:href="#4" y="4.342"/></svg><svg x="5670"><use xlink:href="#a"/><use xlink:href="#b" x="14.996" y="4.317"/><use xlink:href="#13"/><use xlink:href="#13" y="2.171"/><use xlink:href="#5" y="4.342"/></svg><svg x="5760"><use xlink:href="#a"/><use xlink:href="#b" x="15.996" y="4.317"/><use xlink:href="#13"/><use xlink:href="#13" y="2.171"/><use xlink:href="#5" y="4.342"/></svg><svg x="5850"><use xlink:href="#a"/><use xlink:href="#b" x="16.996" y="4.317"/><use xlink:href="#13"/><use xlink:href="#13" y="2.171"/><text y="6.012" class="c">bash-3.2$</text><text x="11.022" y="6.012" class="c">yarn</text><text x="16.032" y="6.012" class="c">p</text></svg><svg x="5940"><use xlink:href="#a"/><use xlink:href="#b" x="17.996" y="4.317"/><use xlink:href="#13"/><use xlink:href="#13" y="2.171"/><text y="6.012" class="c">bash-3.2$</text><text x="11.022" y="6.012" class="c">yarn</text><text x="16.032" y="6.012" class="c">pa</text></svg><svg x="6030"><use xlink:href="#a"/><use xlink:href="#b" x="18.996" y="4.317"/><use xlink:href="#13"/><use xlink:href="#13" y="2.171"/><text y="6.012" class="c">bash-3.2$</text><text x="11.022" y="6.012" class="c">yarn</text><text x="16.032" y="6.012" class="c">pac</text></svg><svg x="6120"><use xlink:href="#a"/><use xlink:href="#b" x="19.996" y="4.317"/><use xlink:href="#13"/><use xlink:href="#13" y="2.171"/><text y="6.012" class="c">bash-3.2$</text><text x="11.022" y="6.012" class="c">yarn</text><text x="16.032" y="6.012" class="c">pack</text></svg><svg x="6210"><use xlink:href="#a"/><use xlink:href="#b" x="20.996" y="4.317"/><use xlink:href="#13"/><use xlink:href="#13" y="2.171"/><text y="6.012" class="c">bash-3.2$</text><text x="11.022" y="6.012" class="c">yarn</text><text x="16.032" y="6.012" class="c">packa</text></svg><svg x="6300"><use xlink:href="#a"/><use xlink:href="#b" x="21.996" y="4.317"/><use xlink:href="#13"/><use xlink:href="#13" y="2.171"/><text y="6.012" class="c">bash-3.2$</text><text x="11.022" y="6.012" class="c">yarn</text><text x="16.032" y="6.012" class="c">packag</text></svg><svg x="6390"><use xlink:href="#a"/><use xlink:href="#b" x="22.996" y="4.317"/><use xlink:href="#13"/><use xlink:href="#13" y="2.171"/><text y="6.012" class="c">bash-3.2$</text><text x="11.022" y="6.012" class="c">yarn</text><text x="16.032" y="6.012" class="c">package</text></svg><svg x="6480"><use xlink:href="#a"/><use xlink:href="#b" x="23.996" y="4.317"/><use xlink:href="#13"/><use xlink:href="#13" y="2.171"/><text y="6.012" class="c">bash-3.2$</text><text x="11.022" y="6.012" class="c">yarn</text><text x="16.032" y="6.012" class="c">package-</text></svg><svg x="6570"><use xlink:href="#a"/><use xlink:href="#b" x="24.996" y="4.317"/><use xlink:href="#13"/><use xlink:href="#13" y="2.171"/><text y="6.012" class="c">bash-3.2$</text><text x="11.022" y="6.012" class="c">yarn</text><text x="16.032" y="6.012" class="c">package-e</text></svg><svg x="6660"><use xlink:href="#a"/><use xlink:href="#b" x="25.996" y="4.317"/><use xlink:href="#13"/><use xlink:href="#13" y="2.171"/><text y="6.012" class="c">bash-3.2$</text><text x="11.022" y="6.012" class="c">yarn</text><text x="16.032" y="6.012" class="c">package-el</text></svg><svg x="6750"><use xlink:href="#a"/><use xlink:href="#b" x="26.996" y="4.317"/><use xlink:href="#13"/><use xlink:href="#13" y="2.171"/><text y="6.012" class="c">bash-3.2$</text><text x="11.022" y="6.012" class="c">yarn</text><text x="16.032" y="6.012" class="c">package-eli</text></svg><svg x="6840"><use xlink:href="#a"/><use xlink:href="#b" x="27.996" y="4.317"/><use xlink:href="#13"/><use xlink:href="#13" y="2.171"/><use xlink:href="#14" y="4.342"/></svg><svg x="6930"><use xlink:href="#a"/><use xlink:href="#b" x="-.004" y="6.488"/><use xlink:href="#13"/><use xlink:href="#13" y="2.171"/><use xlink:href="#14" y="4.342"/></svg><svg x="7020"><use xlink:href="#a"/><use xlink:href="#b" x="-.004" y="6.488"/><use xlink:href="#13"/><use xlink:href="#13" y="2.171"/><use xlink:href="#14" y="4.342"/></svg><svg x="7110"><use xlink:href="#a"/><use xlink:href="#b" x="-.004" y="6.488"/><use xlink:href="#13"/><use xlink:href="#13" y="2.171"/><use xlink:href="#14" y="4.342"/></svg><svg x="7200"><use xlink:href="#a"/><use xlink:href="#b" x="-.004" y="8.659"/><use xlink:href="#13"/><use xlink:href="#13" y="2.171"/><use xlink:href="#14" y="4.342"/><use xlink:href="#15" y="6.513"/></svg><svg x="7290"><use xlink:href="#a"/><use xlink:href="#b" x="-.004" y="8.659"/><use xlink:href="#13"/><use xlink:href="#13" y="2.171"/><use xlink:href="#14" y="4.342"/><use xlink:href="#15" y="6.513"/></svg><svg x="7380"><use xlink:href="#a"/><use xlink:href="#b" x="-.004" y="10.83"/><use xlink:href="#13"/><use xlink:href="#13" y="2.171"/><use xlink:href="#14" y="4.342"/><use xlink:href="#15" y="6.513"/><use xlink:href="#16" y="8.684"/></svg><svg x="7470"><use xlink:href="#a"/><use xlink:href="#b" x="-.004" y="13.001"/><use xlink:href="#13"/><use xlink:href="#13" y="2.171"/><use xlink:href="#14" y="4.342"/><use xlink:href="#15" y="6.513"/><use xlink:href="#16" y="8.684"/><use xlink:href="#17" y="10.855"/></svg><svg x="7560"><use xlink:href="#a"/><use xlink:href="#b" x="-.004" y="15.172"/><use xlink:href="#13"/><use xlink:href="#13" y="2.171"/><use xlink:href="#14" y="4.342"/><use xlink:href="#15" y="6.513"/><use xlink:href="#16" y="8.684"/><use xlink:href="#17" y="10.855"/><use xlink:href="#18" y="13.026"/></svg><svg x="7650"><use xlink:href="#a"/><use xlink:href="#b" x="-.004" y="15.172"/><use xlink:href="#13"/><use xlink:href="#13" y="2.171"/><use xlink:href="#14" y="4.342"/><use xlink:href="#15" y="6.513"/><use xlink:href="#16" y="8.684"/><use xlink:href="#17" y="10.855"/><use xlink:href="#18" y="13.026"/></svg><svg x="7740"><use xlink:href="#a"/><use xlink:href="#b" x="-.004" y="17.343"/><use xlink:href="#13"/><use xlink:href="#13" y="2.171"/><use xlink:href="#14" y="4.342"/><use xlink:href="#15" y="6.513"/><use xlink:href="#16" y="8.684"/><use xlink:href="#17" y="10.855"/><use xlink:href="#18" y="13.026"/><use xlink:href="#19" y="15.197"/></svg><svg x="7830"><use xlink:href="#a"/><use xlink:href="#b" x="10.996" y="17.343"/><use xlink:href="#13"/><use xlink:href="#13" y="2.171"/><use xlink:href="#14" y="4.342"/><use xlink:href="#15" y="6.513"/><use xlink:href="#16" y="8.684"/><use xlink:href="#17" y="10.855"/><use xlink:href="#18" y="13.026"/><use xlink:href="#19" y="15.197"/><use xlink:href="#1" y="17.368"/></svg><svg x="7920"><use xlink:href="#a"/><use xlink:href="#b" x="-.004" y="19.514"/><use xlink:href="#13"/><use xlink:href="#13" y="2.171"/><use xlink:href="#14" y="4.342"/><use xlink:href="#15" y="6.513"/><use xlink:href="#16" y="8.684"/><use xlink:href="#17" y="10.855"/><use xlink:href="#18" y="13.026"/><use xlink:href="#19" y="15.197"/><text y="19.038" class="c">bash-3.2$</text><text x="11.022" y="19.038" class="c">exit</text></svg></svg></g></g></svg></svg>